<?xml version="1.0" encoding="UTF-8" standalone="no"?>
<!-- Created with Inkscape (http://www.inkscape.org/) -->

<svg
   width="211.67183mm"
   height="48.894402mm"
   viewBox="0 0 211.67183 48.894402"
   version="1.1"
   id="svg1"
   xml:space="preserve"
   inkscape:version="1.3.2 (091e20e, 2023-11-25, custom)"
   sodipodi:docname="Game_Boy_Advance_2001_(Banner, Only For)_2.svg"
   xmlns:inkscape="http://www.inkscape.org/namespaces/inkscape"
   xmlns:sodipodi="http://sodipodi.sourceforge.net/DTD/sodipodi-0.dtd"
   xmlns:xlink="http://www.w3.org/1999/xlink"
   xmlns="http://www.w3.org/2000/svg"
   xmlns:svg="http://www.w3.org/2000/svg"><sodipodi:namedview
     id="namedview1"
     pagecolor="#ffffff"
     bordercolor="#000000"
     borderopacity="0.25"
     inkscape:showpageshadow="2"
     inkscape:pageopacity="0.0"
     inkscape:pagecheckerboard="0"
     inkscape:deskcolor="#d1d1d1"
     inkscape:document-units="mm"
     inkscape:zoom="1.4142136"
     inkscape:cx="435.57778"
     inkscape:cy="42.072854"
     inkscape:window-width="2560"
     inkscape:window-height="1351"
     inkscape:window-x="-9"
     inkscape:window-y="-9"
     inkscape:window-maximized="1"
     inkscape:current-layer="layer1" /><defs
     id="defs1"><linearGradient
   id="linearGradient43"
   inkscape:collect="always"><stop
     style="stop-color:#7c75c0;stop-opacity:1;"
     offset="0"
     id="stop42" /><stop
     style="stop-color:#7c75c0;stop-opacity:0;"
     offset="0.15000001"
     id="stop43" /></linearGradient><linearGradient
   id="linearGradient40"
   inkscape:collect="always"><stop
     style="stop-color:#7c75c0;stop-opacity:1;"
     offset="0"
     id="stop40" /><stop
     style="stop-color:#7c75c0;stop-opacity:0;"
     offset="0.15000001"
     id="stop41" /></linearGradient><linearGradient
   id="linearGradient38"
   inkscape:collect="always"><stop
     style="stop-color:#34388f;stop-opacity:0;"
     offset="0.40000001"
     id="stop38" /><stop
     style="stop-color:#0b0c34;stop-opacity:1;"
     offset="0.46000001"
     id="stop39" /></linearGradient><linearGradient
   id="linearGradient22"
   inkscape:collect="always"><stop
     style="stop-color:#ffffff;stop-opacity:0;"
     offset="0.92086333"
     id="stop22" /><stop
     style="stop-color:#ffffff;stop-opacity:1;"
     offset="1"
     id="stop21" /></linearGradient><linearGradient
   id="linearGradient19"
   inkscape:collect="always"><stop
     style="stop-color:#000000;stop-opacity:1;"
     offset="0"
     id="stop19" /><stop
     style="stop-color:#000000;stop-opacity:0;"
     offset="0.07913667"
     id="stop18" /></linearGradient><linearGradient
   id="linearGradient16"
   inkscape:collect="always"><stop
     style="stop-color:#000000;stop-opacity:0;"
     offset="0.92086333"
     id="stop17" /><stop
     style="stop-color:#000000;stop-opacity:1;"
     offset="1"
     id="stop16" /></linearGradient><linearGradient
   id="linearGradient2"
   inkscape:collect="always"><stop
     style="stop-color:#757575;stop-opacity:1;"
     offset="0.39328539"
     id="stop2" /><stop
     style="stop-color:#ffffff;stop-opacity:1;"
     offset="0.58513188"
     id="stop3" /></linearGradient>
	
	
	
<filter
   inkscape:label="Film Grain"
   inkscape:menu="Image Effects"
   inkscape:menu-tooltip="Adds a small scale graininess"
   style="color-interpolation-filters:sRGB"
   id="filter2"
   x="0"
   y="0"
   width="1"
   height="1"><feTurbulence
     type="fractalNoise"
     numOctaves="10"
     baseFrequency="0.0040000000000000001 1"
     seed="0"
     result="result0"
     id="feTurbulence1" /><feColorMatrix
     result="result4"
     values="0"
     type="saturate"
     id="feColorMatrix1" /><feComposite
     in="SourceGraphic"
     in2="result4"
     operator="arithmetic"
     k1="0.33"
     k2="0.69"
     k3="0.11"
     result="result2"
     id="feComposite1"
     k4="0" /><feBlend
     result="result5"
     mode="normal"
     in="result2"
     in2="SourceGraphic"
     id="feBlend1" /><feComposite
     in="result5"
     in2="SourceGraphic"
     operator="in"
     result="result3"
     id="feComposite2" /></filter><filter
   inkscape:label="Bloom"
   inkscape:menu="Bevels"
   inkscape:menu-tooltip="Soft, cushion-like bevel with matte highlights"
   style="color-interpolation-filters:sRGB"
   id="filter9"
   x="-0.019704805"
   y="-0.16341323"
   width="1.0394096"
   height="1.3268265"><feGaussianBlur
     result="result1"
     in="SourceAlpha"
     stdDeviation="7.1428571428571423"
     id="feGaussianBlur7" /><feSpecularLighting
     result="result0"
     specularExponent="16.79781342"
     specularConstant="5"
     surfaceScale="5"
     id="feSpecularLighting7"><feDistantLight
       azimuth="319"
       elevation="12"
       id="feDistantLight7" /></feSpecularLighting><feComposite
     result="result6"
     operator="in"
     in2="SourceAlpha"
     id="feComposite7" /><feMorphology
     radius="5.7"
     operator="dilate"
     id="feMorphology7" /><feGaussianBlur
     result="result11"
     stdDeviation="5.7"
     id="feGaussianBlur8" /><feDiffuseLighting
     surfaceScale="5"
     result="result3"
     diffuseConstant="2"
     in="result1"
     id="feDiffuseLighting8"><feDistantLight
       elevation="25"
       azimuth="225"
       id="feDistantLight8" /></feDiffuseLighting><feBlend
     result="result7"
     mode="multiply"
     in="result3"
     in2="SourceGraphic"
     id="feBlend8" /><feComposite
     in="result7"
     operator="in"
     in2="SourceAlpha"
     result="result91"
     id="feComposite8" /><feBlend
     result="result9"
     mode="lighten"
     in="result6"
     in2="result91"
     id="feBlend9" /><feComposite
     in="result11"
     in2="result9"
     id="feComposite9" /></filter><filter
   inkscape:label="Bloom"
   inkscape:menu="Bevels"
   inkscape:menu-tooltip="Soft, cushion-like bevel with matte highlights"
   style="color-interpolation-filters:sRGB"
   id="filter14"
   x="-0.01906216"
   y="-0.10716558"
   width="1.0381243"
   height="1.2143312"><feGaussianBlur
     result="result1"
     in="SourceAlpha"
     stdDeviation="13.690476190476192"
     id="feGaussianBlur12" /><feSpecularLighting
     result="result0"
     specularExponent="18.10000038"
     specularConstant="2"
     surfaceScale="5"
     id="feSpecularLighting12"><feDistantLight
       azimuth="262"
       elevation="0"
       id="feDistantLight12" /></feSpecularLighting><feComposite
     result="result6"
     operator="in"
     in2="SourceAlpha"
     id="feComposite12" /><feMorphology
     radius="0"
     operator="dilate"
     id="feMorphology12" /><feGaussianBlur
     result="result11"
     stdDeviation="1.1904761904761905"
     id="feGaussianBlur13" /><feDiffuseLighting
     surfaceScale="5"
     result="result3"
     diffuseConstant="2"
     in="result1"
     id="feDiffuseLighting13"><feDistantLight
       elevation="148"
       azimuth="156"
       id="feDistantLight13" /></feDiffuseLighting><feBlend
     result="result7"
     mode="multiply"
     in="result3"
     in2="SourceGraphic"
     id="feBlend13" /><feComposite
     in="result7"
     operator="in"
     in2="SourceAlpha"
     result="result91"
     id="feComposite13" /><feBlend
     result="result9"
     mode="lighten"
     in="result6"
     in2="result91"
     id="feBlend14" /><feComposite
     in="result11"
     in2="result9"
     id="feComposite14" /></filter><filter
   inkscape:label="Bloom"
   inkscape:menu="Bevels"
   inkscape:menu-tooltip="Soft, cushion-like bevel with matte highlights"
   style="color-interpolation-filters:sRGB"
   id="filter9-3"
   x="-0.019704806"
   y="-0.16341323"
   width="1.0394096"
   height="1.3268265"><feGaussianBlur
     result="result1"
     in="SourceAlpha"
     stdDeviation="7.1428571428571423"
     id="feGaussianBlur7-3" /><feSpecularLighting
     result="result0"
     specularExponent="16.79781342"
     specularConstant="5"
     surfaceScale="5"
     id="feSpecularLighting7-4"><feDistantLight
       azimuth="319"
       elevation="12"
       id="feDistantLight7-1" /></feSpecularLighting><feComposite
     result="result6"
     operator="in"
     in2="SourceAlpha"
     id="feComposite7-1" /><feMorphology
     radius="5.7"
     operator="dilate"
     id="feMorphology7-3" /><feGaussianBlur
     result="result11"
     stdDeviation="5.7"
     id="feGaussianBlur8-8" /><feDiffuseLighting
     surfaceScale="5"
     result="result3"
     diffuseConstant="2"
     in="result1"
     id="feDiffuseLighting8-7"><feDistantLight
       elevation="25"
       azimuth="225"
       id="feDistantLight8-4" /></feDiffuseLighting><feBlend
     result="result7"
     mode="multiply"
     in="result3"
     in2="SourceGraphic"
     id="feBlend8-2" /><feComposite
     in="result7"
     operator="in"
     in2="SourceAlpha"
     result="result91"
     id="feComposite8-7" /><feBlend
     result="result9"
     mode="lighten"
     in="result6"
     in2="result91"
     id="feBlend9-7" /><feComposite
     in="result11"
     in2="result9"
     id="feComposite9-9" /></filter>
		
		
		
		
		
	<filter
   inkscape:collect="always"
   style="color-interpolation-filters:sRGB"
   id="filter15"
   x="-0.0075297004"
   y="-0.084229327"
   width="1.0150594"
   height="1.1684587"><feGaussianBlur
     inkscape:collect="always"
     stdDeviation="0.57754668"
     id="feGaussianBlur15" /></filter><radialGradient
   inkscape:collect="always"
   xlink:href="#linearGradient16"
   id="radialGradient17"
   cx="104.07115"
   cy="32.941692"
   fx="104.07115"
   fy="32.941692"
   r="105.83592"
   gradientTransform="matrix(2.3185073,0.02951439,-0.00879755,0.69108717,-141.2742,24.903041)"
   gradientUnits="userSpaceOnUse" /><linearGradient
   inkscape:collect="always"
   xlink:href="#linearGradient19"
   id="linearGradient17"
   x1="143.76105"
   y1="-2.2309084"
   x2="218.40242"
   y2="-2.2309084"
   gradientUnits="userSpaceOnUse"
   gradientTransform="translate(-144.19792,100.27708)" /><linearGradient
   inkscape:collect="always"
   xlink:href="#linearGradient22"
   id="linearGradient20"
   gradientUnits="userSpaceOnUse"
   gradientTransform="translate(-144.19792,100.27708)"
   x1="311.98865"
   y1="-3.8105104"
   x2="355.43289"
   y2="-4.205411" /><linearGradient
   inkscape:collect="always"
   xlink:href="#linearGradient22"
   id="linearGradient23"
   gradientUnits="userSpaceOnUse"
   gradientTransform="translate(-144.19792,100.27708)"
   x1="311.59375"
   y1="20.673321"
   x2="311.99384"
   y2="-25.135138" /><linearGradient
   inkscape:collect="always"
   xlink:href="#linearGradient2"
   id="linearGradient8"
   gradientUnits="userSpaceOnUse"
   x1="-20.280624"
   y1="89.326996"
   x2="239.79277"
   y2="89.326996" /><linearGradient
   inkscape:collect="always"
   xlink:href="#linearGradient38"
   id="linearGradient39"
   x1="80.957275"
   y1="-7.7850885"
   x2="113.6719"
   y2="24.909843"
   gradientUnits="userSpaceOnUse" /><linearGradient
   inkscape:collect="always"
   xlink:href="#linearGradient40"
   id="linearGradient41"
   x1="80.951843"
   y1="8.0852518"
   x2="113.56174"
   y2="8.0852518"
   gradientUnits="userSpaceOnUse" /><linearGradient
   inkscape:collect="always"
   xlink:href="#linearGradient43"
   id="linearGradient42"
   gradientUnits="userSpaceOnUse"
   x1="97.653664"
   y1="-7.7643552"
   x2="97.653664"
   y2="24.886293" /></defs><g
     inkscape:label="Layer 1"
     inkscape:groupmode="layer"
     id="layer1"
     transform="translate(0.43687552,-73.598968)"><g
       id="g29"><g
         id="g26"><g
           id="g25"><path
             id="rect1"
             style="fill:url(#linearGradient8);fill-opacity:1;stroke-width:0.743903;stroke-linecap:round;filter:url(#filter2)"
             d="m -0.43687552,73.598976 v 42.859914 c 24.44183752,2.49843 68.29546052,6.17846 113.42873552,6.03013 30.95066,-0.10173 71.43996,-3.39142 98.2431,-5.93401 V 73.598976 Z" /><g
             id="g23"><path
               id="rect1-7-8-8"
               style="opacity:0.782723;fill:url(#linearGradient20);stroke-width:0.743903;stroke-linecap:round"
               d="m -0.43687552,73.598976 v 42.859914 c 24.44183952,2.49843 68.29546952,6.17846 113.42873552,6.03013 30.95066,-0.10173 71.43996,-3.39142 98.2431,-5.93401 V 73.598976 Z" /><path
               id="rect1-7-8-8-1"
               style="opacity:0.782723;fill:url(#linearGradient23);stroke-width:0.743903;stroke-linecap:round"
               d="m -0.43687552,73.598976 v 42.859914 c 24.44183952,2.49843 68.29546952,6.17846 113.42873552,6.03013 30.95066,-0.10173 71.43996,-3.39142 98.2431,-5.93401 V 73.598976 Z" /></g></g><g
           id="g24"><path
             id="rect1-7"
             style="opacity:0.782723;fill:url(#radialGradient17);fill-opacity:1;stroke-width:0.743903;stroke-linecap:round"
             d="m -0.43687552,73.598976 v 42.859914 c 24.44183752,2.49843 68.29546052,6.17846 113.42873552,6.03013 30.95066,-0.10173 71.43996,-3.39142 98.2431,-5.93401 V 73.598976 Z" /><path
             id="rect1-7-8"
             style="opacity:0.782723;fill:url(#linearGradient17);stroke-width:0.743903;stroke-linecap:round"
             d="m -0.43687552,73.598976 v 42.859914 c 24.44183952,2.49843 68.29546952,6.17846 113.42873552,6.03013 30.95066,-0.10173 71.43996,-3.39142 98.2431,-5.93401 V 73.598976 Z" /></g></g></g><g
       id="g12605-7-0"
       transform="matrix(0.0493797,0,0,0.0493797,-9.118013,141.94167)"
       style="fill:#000000;fill-opacity:1">
		
		
		
		
	</g><g
       id="g28"
       transform="translate(-7.6826638)"><path
         id="path12615-1"
         style="opacity:0.507853;mix-blend-mode:normal;fill:#000000;fill-opacity:1;stroke-width:0.0493797;filter:url(#filter15)"
         class="st1"
         d="m 78.528278,87.787883 c -1.748041,-0.0296 -6.058889,0 -6.058889,0 h 0.03457 l -2.493675,15.603987 c 0,0 5.165117,0 7.268692,0 2.99241,0 7.372389,-4.409607 3.387447,-8.014327 4.098515,-4.24172 0.0395,-7.55509 -2.138141,-7.58966 m -1.886304,12.577007 c -1.782608,0 -2.849209,0 -2.849209,0 l 0.498735,-3.135607 c 0,0 0.676502,0 2.706007,0 2.562807,0 2.493675,3.135607 -0.355533,3.135607 z m 0.390099,-6.340347 c -1.782607,0 -2.246776,0 -2.246776,0 l 0.498735,-2.92328 c 0,0 0.06913,0 2.103575,0 2.281342,0 1.817173,2.92328 -0.355534,2.92328 z m 14.310237,-6.19222 c -3.580028,-0.82464 -7.298319,2.02457 -8.300727,6.37492 -1.007346,4.34541 1.086353,8.542687 4.666381,9.367327 3.580029,0.82464 7.298316,-2.02457 8.300726,-6.374917 1.00735,-4.34047 -1.08635,-8.53775 -4.66638,-9.36733 m 1.264121,9.24388 c -0.874021,2.61713 -2.962782,4.118267 -4.676258,3.352877 -1.708538,-0.765377 -2.389977,-3.505957 -1.515957,-6.123077 0.869083,-2.61712 2.962782,-4.11827 4.67132,-3.35288 1.713475,0.77032 2.394915,3.5109 1.520895,6.12308 z m 7.550155,-4.24171 -2.009756,-5.13549 h -3.703475 l 3.807175,8.29085 -1.1703,7.436577 h 3.229436 l 0.99253,-6.572437 5.81693,-9.15499 h -3.76767 l -3.19487,5.13549 M 56.134584,103.42643 h 9.011795 l 0.543177,-3.37757 h -5.6441 l 0.449356,-2.799827 h 4.903404 l 0.538239,-3.37263 h -4.952784 l 0.429603,-2.80477 h 5.639162 l 0.538239,-3.37263 h -8.942664 l -2.513427,15.727427 m -4.809583,-15.727427 -3.663973,8.61675 -1.580151,-8.61675 H 42.886011 L 38.757868,100.40933 36.639479,87.699003 h -3.984942 l -6.034199,13.692987 0.89871,-5.728047 h -5.994696 l -0.459231,2.94797 h 2.503551 l -0.286402,1.580147 c -1.436949,0.57281 -3.876307,0.35553 -4.918219,-1.511017 -0.65675,-1.18017 -1.269058,-3.82199 1.506081,-6.24653 2.261591,-1.97519 6.177401,-2.33072 8.438991,-1.29375 0,0 0.286403,-1.65422 0.503673,-3.19487 -4.345413,-1.51101 -7.718047,-0.25183 -9.979638,1.15055 -3.081293,1.90606 -4.562684,4.80958 -4.167646,8.75996 0.454293,4.582437 6.389733,7.471147 11.416587,4.562687 0.04444,-0.0247 0.07901,-0.0494 0.113573,-0.0691 l -0.474045,1.07154 h 3.372633 l 2.11839,-4.700937 h 3.733105 l 0.824641,4.700937 h 5.495961 l 2.799829,-8.794517 1.797421,8.794517 h 2.152955 l 4.202212,-9.727797 0.429603,9.727797 h 3.234371 l -0.68144,-15.722487 h -3.876307 m -18.813665,7.96988 1.362879,-3.05167 0.592557,3.05167 z m 165.856454,2.82904 h -8.38961 v -1.93075 h 5.0071 v -2.42948 h -5.0071 v -1.59497 h 8.58713 v -2.49367 h -11.77706 v 11.021547 h 11.9005 v -2.572677 h -0.32096 m -15.65337,-8.44887 h -6.4638 c -2.26653,0 -3.03192,0.70119 -3.03192,2.78008 v 5.46139 c 0,2.073947 0.76539,2.775137 3.03192,2.775137 h 6.4638 c 2.27147,0 3.03685,-0.70119 3.03685,-2.775137 v -1.54558 h -0.32097 l -2.54305,-0.005 h -0.32591 v 1.69866 h -6.15764 v -5.82187 h 6.15764 v 1.53078 h 0.32591 l 2.54305,0.01 h 0.32591 v -1.32831 c -0.005,-2.10358 -0.74069,-2.78008 -3.04179,-2.78008 m -13.03624,0 h -0.32591 v 6.55269 l -8.28591,-6.48356 -0.0889,-0.0691 h -2.17271 v 9.155 l -5.42189,-8.99205 -0.0938,-0.15801 h -2.79489 l -0.0938,0.15801 -6.15765,10.374677 -0.29134,0.48886 h 3.28375 l 0.01,-0.01 h 4.51825 v -2.439357 h -3.17018 l 3.16524,-5.69841 4.4738,7.979757 0.0938,0.16789 h 3.60966 l -0.005,-0.005 h 1.82211 v -6.646507 l 8.25628,6.577377 0.0889,0.0691 h 2.1727 V 90.048983 h -2.59243 m -21.09995,0 h -3.3825 l -0.0938,0.16789 -3.87136,7.03661 -4.1084,-7.04155 -0.0938,-0.16295 h -3.63434 l 0.29628,0.48886 0.69625,1.15055 c -1.12092,-1.06661 -2.8344,-1.64435 -5.0713,-1.64435 h -7.30819 v 9.14512 l -5.41202,-8.97723 -0.0938,-0.15801 h -2.79489 l -0.0938,0.15801 -6.15765,10.374677 -0.29134,0.48886 h 2.4196 v 0.005 h 5.38239 v -2.439347 h -3.16524 l 3.17018,-5.71323 4.4738,7.984687 0.0938,0.16296 h 3.60472 l -0.005,-0.01 h 5.54041 c 4.77501,0 7.19956,-1.866547 7.19956,-5.545337 0,-0.637 -0.084,-1.22955 -0.24196,-1.76285 l 4.33553,7.155107 0.0938,0.15308 h 2.11346 l 0.0938,-0.16295 6.01938,-10.374677 0.2864,-0.47898 m -20.43332,8.44887 h -2.93809 v -5.95026 h 4.14296 c 2.24184,0 3.28375,0.90859 3.28375,2.84921 0,2.32085 -1.1308,3.10105 -4.48862,3.10105 z" /><g
         id="g27" /></g><g
       id="g14"
       transform="translate(-7.6826638)"><g
         id="g12605-7"
         transform="matrix(0.0493797,0,0,0.0493797,11.237676,83.626388)"
         style="fill:#000000;fill-opacity:1">
		<path
   class="st1"
   d="m 2769.3,112 h -68.5 l -1.9,3.4 -78.4,142.5 -83.2,-142.6 -1.9,-3.3 h -73.6 l 6,9.9 14.1,23.3 c -22.7,-21.6 -57.4,-33.3 -102.7,-33.3 h -148 v 185.2 l -109.6,-181.8 -1.9,-3.2 h -56.6 l -1.9,3.2 -124.7,210.1 -5.9,9.9 h 49 v 0.1 h 109 V 286 h -64.1 l 64.2,-115.7 90.6,161.7 1.9,3.3 h 73 l -0.1,-0.2 h 112.2 c 96.7,0 145.8,-37.8 145.8,-112.3 0,-12.9 -1.7,-24.9 -4.9,-35.7 l 87.8,144.9 1.9,3.1 h 42.8 l 1.9,-3.3 121.9,-210.1 5.8,-9.7 M 2355.5,283.1 H 2296 V 162.6 h 83.9 c 45.4,0 66.5,18.4 66.5,57.7 0,47 -22.9,62.8 -90.9,62.8 z"
   id="path12597-9"
   style="fill:#000000;fill-opacity:1" />
		<polyline
   class="st1"
   points="3196.6,112 3190,112 3190,244.7 3022.2,113.4 3020.4,112 2976.4,112 2976.4,297.4 2866.6,115.3     2864.7,112.1 2808.1,112.1 2806.2,115.3 2681.5,325.4 2675.6,335.3 2742.1,335.3 2742.3,335.1 2833.8,335.1 2833.8,285.7     2769.6,285.7 2833.7,170.3 2924.3,331.9 2926.2,335.3 2999.3,335.3 2999.2,335.2 3036.1,335.2 3036.1,200.6 3203.3,333.8     3205.1,335.2 3249.1,335.2 3249.1,112 3196.6,112   "
   id="polyline12599-5"
   style="fill:#000000;fill-opacity:1" />
		<path
   class="st1"
   d="m 3460.6,112 h -130.9 c -45.9,0 -61.4,14.2 -61.4,56.3 v 110.6 c 0,42 15.5,56.2 61.4,56.2 h 130.9 c 46,0 61.5,-14.2 61.5,-56.2 v -31.3 h -6.5 l -51.5,-0.1 h -6.6 v 34.4 H 3332.8 V 164 h 124.7 v 31 h 6.6 l 51.5,0.2 h 6.6 v -26.9 c -0.1,-42.6 -15,-56.3 -61.6,-56.3"
   id="path12601-4"
   style="fill:#000000;fill-opacity:1" />
		<polyline
   class="st1"
   points="3777.6,283.1 3607.7,283.1 3607.7,244 3709.1,244 3709.1,194.8 3607.7,194.8 3607.7,162.5     3781.6,162.5 3781.6,112 3543.1,112 3543.1,335.2 3784.1,335.2 3784.1,283.1 3777.6,283.1   "
   id="polyline12603-3"
   style="fill:#000000;fill-opacity:1" />
	</g><g
         id="g12605"
         transform="matrix(0.0493797,0,0,0.0493797,11.237763,83.62681)"
         style="opacity:0.43;fill:#000000;fill-opacity:1;filter:url(#filter9)">
		<path
   class="st1"
   d="m 2769.3,112 h -68.5 l -1.9,3.4 -78.4,142.5 -83.2,-142.6 -1.9,-3.3 h -73.6 l 6,9.9 14.1,23.3 c -22.7,-21.6 -57.4,-33.3 -102.7,-33.3 h -148 v 185.2 l -109.6,-181.8 -1.9,-3.2 h -56.6 l -1.9,3.2 -124.7,210.1 -5.9,9.9 h 49 v 0.1 h 109 V 286 h -64.1 l 64.2,-115.7 90.6,161.7 1.9,3.3 h 73 l -0.1,-0.2 h 112.2 c 96.7,0 145.8,-37.8 145.8,-112.3 0,-12.9 -1.7,-24.9 -4.9,-35.7 l 87.8,144.9 1.9,3.1 h 42.8 l 1.9,-3.3 121.9,-210.1 5.8,-9.7 M 2355.5,283.1 H 2296 V 162.6 h 83.9 c 45.4,0 66.5,18.4 66.5,57.7 0,47 -22.9,62.8 -90.9,62.8 z"
   id="path12597"
   style="fill:#000000;fill-opacity:1" />
		<polyline
   class="st1"
   points="3196.6,112 3190,112 3190,244.7 3022.2,113.4 3020.4,112 2976.4,112 2976.4,297.4 2866.6,115.3     2864.7,112.1 2808.1,112.1 2806.2,115.3 2681.5,325.4 2675.6,335.3 2742.1,335.3 2742.3,335.1 2833.8,335.1 2833.8,285.7     2769.6,285.7 2833.7,170.3 2924.3,331.9 2926.2,335.3 2999.3,335.3 2999.2,335.2 3036.1,335.2 3036.1,200.6 3203.3,333.8     3205.1,335.2 3249.1,335.2 3249.1,112 3196.6,112   "
   id="polyline12599"
   style="fill:#000000;fill-opacity:1" />
		<path
   class="st1"
   d="m 3460.6,112 h -130.9 c -45.9,0 -61.4,14.2 -61.4,56.3 v 110.6 c 0,42 15.5,56.2 61.4,56.2 h 130.9 c 46,0 61.5,-14.2 61.5,-56.2 v -31.3 h -6.5 l -51.5,-0.1 h -6.6 v 34.4 H 3332.8 V 164 h 124.7 v 31 h 6.6 l 51.5,0.2 h 6.6 v -26.9 c -0.1,-42.6 -15,-56.3 -61.6,-56.3"
   id="path12601"
   style="fill:#000000;fill-opacity:1" />
		<polyline
   class="st1"
   points="3777.6,283.1 3607.7,283.1 3607.7,244 3709.1,244 3709.1,194.8 3607.7,194.8 3607.7,162.5     3781.6,162.5 3781.6,112 3543.1,112 3543.1,335.2 3784.1,335.2 3784.1,283.1 3777.6,283.1   "
   id="polyline12603"
   style="fill:#000000;fill-opacity:1" />
	</g></g><g
       id="g12617"
       transform="matrix(0.0493797,0,0,0.0493797,3.5550849,83.626808)"
       style="display:inline;fill:#ffffff;fill-opacity:1;filter:url(#filter14)">
		<path
   class="st1"
   d="M 799.8,64.4 725.6,238.9 693.6,64.4 H 628.9 L 545.3,321.8 502.4,64.4 h -80.7 l -122.2,277.3 18.2,-116 H 196.3 l -9.3,59.7 h 50.7 l -5.8,32 c -29.1,11.6 -78.5,7.2 -99.6,-30.6 -13.3,-23.9 -25.7,-77.4 30.5,-126.5 45.8,-40 125.1,-47.2 170.9,-26.2 0,0 5.8,-33.5 10.2,-64.7 -88,-30.6 -156.3,-5.1 -202.1,23.3 -62.4,38.6 -92.4,97.4 -84.4,177.4 9.2,92.8 129.4,151.3 231.2,92.4 0.9,-0.5 1.6,-1 2.3,-1.4 l -9.6,21.7 h 68.3 l 42.9,-95.2 h 75.6 l 16.7,95.2 h 111.3 l 56.7,-178.1 36.4,178.1 h 43.6 l 85.1,-197 8.7,197 h 65.5 L 878.3,64.4 h -78.5 m -381,161.4 27.6,-61.8 12,61.8 z"
   id="path12607"
   style="fill:#ffffff;fill-opacity:1" />
		<polyline
   class="st1"
   points="897.2,382.9 1079.7,382.9 1090.7,314.5 976.4,314.5 985.5,257.8 1084.8,257.8 1095.7,189.5     995.4,189.5 1004.1,132.7 1118.3,132.7 1129.2,64.4 948.1,64.4 897.2,382.9   "
   id="polyline12609"
   style="fill:#ffffff;fill-opacity:1" />
		<polyline
   class="st1"
   points="1788.7,168.4 1748,64.4 1673,64.4 1750.1,232.3 1726.4,382.9 1791.8,382.9 1811.9,249.8     1929.7,64.4 1853.4,64.4 1788.7,168.4   "
   id="polyline12611"
   style="fill:#ffffff;fill-opacity:1" />
		<path
   class="st1"
   d="m 1610.2,67.1 c -72.5,-16.7 -147.8,41 -168.1,129.1 -20.4,88 22,173 94.5,189.7 72.5,16.7 147.8,-41 168.1,-129.1 20.4,-87.9 -22,-172.9 -94.5,-189.7 m 25.6,187.2 c -17.7,53 -60,83.4 -94.7,67.9 -34.6,-15.5 -48.4,-71 -30.7,-124 17.6,-53 60,-83.4 94.6,-67.9 34.7,15.6 48.5,71.1 30.8,124 z"
   id="path12613"
   style="fill:#ffffff;fill-opacity:1" />
		<path
   class="st1"
   d="m 1350.7,66.2 c -35.4,-0.6 -122.7,0 -122.7,0 h 0.7 l -50.5,316 c 0,0 104.6,0 147.2,0 60.6,0 149.3,-89.3 68.6,-162.3 83,-85.9 0.8,-153 -43.3,-153.7 m -38.2,254.7 c -36.1,0 -57.7,0 -57.7,0 l 10.1,-63.5 c 0,0 13.7,0 54.8,0 51.9,0 50.5,63.5 -7.2,63.5 z m 7.9,-128.4 c -36.1,0 -45.5,0 -45.5,0 l 10.1,-59.2 c 0,0 1.4,0 42.6,0 46.2,0 36.8,59.2 -7.2,59.2 z"
   id="path12615"
   style="fill:#ffffff;fill-opacity:1" />
	</g><g
       id="g1"
       transform="rotate(90,105.39904,98.046165)"><path
         id="path1"
         style="display:inline;opacity:1;fill:#34388f;fill-opacity:1;fill-rule:evenodd;stroke-width:1.24325;stroke-miterlimit:3.1;paint-order:stroke markers fill"
         d="M 80.951844,-7.789748 V 24.918333 L 113.67543,-7.789748 Z" /><path
         id="path41"
         style="display:inline;opacity:1;fill:url(#linearGradient42);fill-opacity:1;fill-rule:evenodd;stroke-width:1.24325;stroke-miterlimit:3.1;paint-order:stroke markers fill"
         d="M 80.951844,-7.789748 V 24.918333 L 113.67543,-7.789748 Z"
         transform="translate(-1.2291667e-6)" /><path
         id="path39"
         style="display:inline;opacity:1;fill:url(#linearGradient41);fill-opacity:1;fill-rule:evenodd;stroke-width:1.24325;stroke-miterlimit:3.1;paint-order:stroke markers fill"
         d="M 80.951844,-7.789748 V 24.918333 L 113.67543,-7.789748 Z"
         transform="translate(-1.2291667e-6)" /><path
         id="path38"
         style="display:inline;opacity:1;fill:url(#linearGradient39);fill-opacity:1;fill-rule:evenodd;stroke-width:1.24325;stroke-miterlimit:3.1;paint-order:stroke markers fill"
         d="M 80.951844,-7.789748 V 24.918333 L 113.67543,-7.789748 Z" /></g><g
       id="g2"
       transform="rotate(45,-208.87338,-327.73218)"><path
         style="font-weight:bold;font-size:5.85857px;font-family:BankGothic;-inkscape-font-specification:'BankGothic Bold';text-align:center;letter-spacing:0.249655px;word-spacing:0px;text-anchor:middle;fill:#ffffff;fill-rule:evenodd;stroke-width:0.0629053;stroke-miterlimit:3.1;paint-order:stroke markers fill"
         d="m 392.20955,-306.09716 q 0,0.42182 -0.16404,0.56828 -0.15818,0.14646 -0.58586,0.14646 h -2.22625 q -0.42768,0 -0.59172,-0.14646 -0.15818,-0.14646 -0.15818,-0.56828 v -1.59353 q 0,-0.42182 0.15818,-0.56828 0.16404,-0.14647 0.59172,-0.14647 h 2.22625 q 0.42768,0 0.58586,0.14647 0.16404,0.14646 0.16404,0.56828 z m -0.70303,0.14646 v -1.91575 h -2.31999 v 1.91575 z"
         id="text1-4"
         transform="scale(0.93906951,1.0648839)"
         aria-label="O" /><path
         style="font-weight:bold;font-size:5.85857px;font-family:BankGothic;-inkscape-font-specification:'BankGothic Bold';text-align:center;letter-spacing:0.249655px;word-spacing:0px;text-anchor:middle;fill:#ffffff;fill-rule:evenodd;stroke-width:0.0629053;stroke-miterlimit:3.1;paint-order:stroke markers fill"
         d="m 397.50997,-302.29257 q 0,0.42182 -0.16404,0.56829 -0.15818,0.14646 -0.58586,0.14646 h -2.22626 q -0.42767,0 -0.59171,-0.14646 -0.15818,-0.14647 -0.15818,-0.56829 v -1.59353 q 0,-0.42181 0.15818,-0.56828 0.16404,-0.14646 0.59171,-0.14646 h 2.22626 q 0.42768,0 0.58586,0.14646 0.16404,0.14647 0.16404,0.56828 z m -0.70303,0.14647 v -1.91575 h -2.32 v 1.91575 z"
         id="text1-5-0"
         transform="scale(0.93906951,1.0648839)"
         aria-label="O" /><path
         style="font-weight:bold;font-size:5.85857px;font-family:BankGothic;-inkscape-font-specification:'BankGothic Bold';text-align:center;letter-spacing:0.249655px;word-spacing:0px;text-anchor:middle;fill:#ffffff;fill-rule:evenodd;stroke-width:0.0629053;stroke-miterlimit:3.1;paint-order:stroke markers fill"
         d="m 393.32186,-304.07357 h -2.35515 v 0.69793 h 1.54525 v 0.55071 h -1.54525 v 1.24711 h -0.70303 v -3.02302 h 3.05818 z"
         id="text1-5-2-1"
         transform="scale(0.93906951,1.0648839)"
         aria-label="F"
         sodipodi:nodetypes="ccccccccccc" /><path
         style="font-weight:bold;font-size:5.85857px;font-family:BankGothic;-inkscape-font-specification:'BankGothic Bold';text-align:center;letter-spacing:0.249655px;word-spacing:0px;text-anchor:middle;fill:#ffffff;fill-rule:evenodd;stroke-width:0.0629053;stroke-miterlimit:3.1;paint-order:stroke markers fill"
         d="m 402.13184,-301.57782 h -1.00768 l -1.29329,-1.14242 h -0.75504 v 1.14242 h -0.69131 v -3.02302 h 2.67665 c 0.45306,0 0.67959,0.19529 0.67959,0.58586 v 0.70888 c 0,0.29293 -0.11717,0.47454 -0.35151,0.54485 -0.0898,0.0273 -0.33199,0.041 -0.72646,0.041 z m -1.07067,-1.89818 v -0.36323 c 0,-0.10155 -0.0293,-0.16794 -0.0879,-0.19919 -0.0429,-0.0273 -0.11909,-0.041 -0.22848,-0.041 h -1.66898 v 0.84363 h 1.66898 c 0.10936,0 0.18552,-0.0137 0.22848,-0.041 0.0586,-0.0313 0.0879,-0.0977 0.0879,-0.19919 z"
         id="text1-5-2-4-1"
         transform="scale(0.93906951,1.0648839)"
         aria-label="R"
         sodipodi:nodetypes="cccccccsssccccscsccscsc" /><path
         style="font-weight:bold;font-size:5.85857px;font-family:BankGothic;-inkscape-font-specification:'BankGothic Bold';text-align:center;letter-spacing:0.249655px;word-spacing:0px;text-anchor:middle;fill:#ffffff;fill-rule:evenodd;stroke-width:0.0629053;stroke-miterlimit:3.1;paint-order:stroke markers fill"
         d="m 396.75891,-305.38242 h -0.4804 l -2.2204,-1.86888 q -0.1406,-0.11717 -0.25192,-0.24606 0.0293,0.29293 0.0293,0.46283 v 1.65211 h -0.63273 v -3.02302 h 0.4804 l 2.12666,1.78101 q 0.22849,0.19333 0.34566,0.32808 -0.0293,-0.42182 -0.0293,-0.52142 v -1.58767 h 0.63272 z"
         id="text1-7-3"
         transform="scale(0.93906951,1.0648839)"
         aria-label="N" /><path
         style="font-weight:bold;font-size:5.85857px;font-family:BankGothic;-inkscape-font-specification:'BankGothic Bold';text-align:center;letter-spacing:0.249655px;word-spacing:0px;text-anchor:middle;fill:#ffffff;fill-rule:evenodd;stroke-width:0.0629053;stroke-miterlimit:3.1;paint-order:stroke markers fill"
         d="m 400.72113,-305.38242 h -2.97029 v -3.02302 h 0.70303 v 2.45474 h 2.26726 z"
         id="text1-7-7-6"
         transform="scale(0.93906951,1.0648839)"
         aria-label="L" /><path
         style="font-weight:bold;font-size:5.85857px;font-family:BankGothic;-inkscape-font-specification:'BankGothic Bold';text-align:center;letter-spacing:0.249655px;word-spacing:0px;text-anchor:middle;fill:#ffffff;fill-rule:evenodd;stroke-width:0.0629053;stroke-miterlimit:3.1;paint-order:stroke markers fill"
         d="m 403.88865,-308.40544 -1.62587,1.65212 v 1.3709 h -0.70889 v -1.35333 l -1.69336,-1.66969 h 0.93737 l 1.10741,1.10565 1.15728,-1.10565 z"
         id="text1-7-7-8-9"
         aria-label="Y"
         sodipodi:nodetypes="cccccccccc"
         transform="scale(0.93906951,1.0648839)" /></g></g><style
     type="text/css"
     id="style12593">
	.st0{fill:#232F95;}
	.st1{fill:#FFFFFF;}
	.st2{fill:url(#SVGID_1_);}
	.st3{fill:url(#SVGID_00000031177864340325883760000018198346995320477615_);}
	.st4{fill:url(#SVGID_00000077306554045697521040000014862057651926347657_);}
	.st5{fill:url(#SVGID_00000157293655052773840150000004048095913754004660_);}
	.st6{fill:url(#SVGID_00000126322641464604716520000004697712119385894836_);}
	.st7{fill:url(#SVGID_00000011752243778178168440000004865533557051679380_);}
	.st8{fill:url(#SVGID_00000152256897450393880980000005003888097249151926_);}
	.st9{fill:url(#SVGID_00000103235660146449029100000009480701047893171128_);}
	.st10{fill:url(#SVGID_00000015351676586980646730000017558538143836198052_);}
	.st11{fill:url(#SVGID_00000173843404184191385190000011588040615121952650_);}
	.st12{fill:url(#SVGID_00000080185906595213889900000006518194604873275026_);}
	.st13{fill:url(#SVGID_00000035530060332090122920000003458952914409005247_);}
	.st14{fill:url(#SVGID_00000134224958793449053370000017542897941572621733_);}
	.st15{fill:url(#SVGID_00000090282962740583288450000018121472694854771879_);}
	.st16{fill:url(#SVGID_00000076595297256079744580000016179865903418930356_);}
	.st17{fill:url(#SVGID_00000110459505768582756850000011444846151491140774_);}
	.st18{fill:url(#SVGID_00000013176404037946005510000005263777537333737119_);}
	.st19{fill:url(#SVGID_00000103237811259585549150000004791301777528316076_);}
	.st20{fill:url(#SVGID_00000052068756957872543270000013859974003734962358_);}
	.st21{fill:url(#SVGID_00000097497076771088658600000004224769650002279834_);}
	.st22{fill:url(#SVGID_00000098924633826494017840000015657113215716461745_);}
	.st23{fill:url(#SVGID_00000016758077711946862690000006842921789492120727_);}
	.st24{fill:url(#SVGID_00000181801996498053652350000000195856083618658953_);}
	.st25{fill:url(#SVGID_00000183230439685392926510000013488748977968398008_);}
	.st26{fill:url(#SVGID_00000031192204429060811130000008328842349604864668_);}
	.st27{fill:url(#SVGID_00000145039946612851608290000001965063853407875206_);}
	.st28{fill:url(#SVGID_00000080207606700936517740000010164549898874956677_);}
	.st29{fill:url(#SVGID_00000093155419685178671060000003242326224771820194_);}
	.st30{fill:url(#SVGID_00000062180036006405802920000000848429864445772725_);}
	.st31{fill:url(#SVGID_00000165202209686020532970000005140788951039794334_);}
	.st32{fill:url(#SVGID_00000155113970602612937360000005331340469465145482_);}
	.st33{fill:url(#SVGID_00000028288288372136441200000012148204990816606643_);}
	.st34{fill:url(#SVGID_00000181809922936381458430000002053721568941494715_);}
	.st35{fill:url(#SVGID_00000158722742465649428390000007431360310813259957_);}
	.st36{fill:url(#SVGID_00000120540888053252929670000002883377364913281195_);}
	.st37{fill:url(#SVGID_00000131332430798487195830000011554556929491190666_);}
	.st38{fill:url(#SVGID_00000165201033152833904090000014287079352421331371_);}
	.st39{fill:url(#SVGID_00000048461655322054267350000005724913079682781327_);}
	.st40{fill:url(#SVGID_00000164497131431341984610000000538131690439746748_);}
	.st41{fill:url(#SVGID_00000173148712747452676220000004561578997877299101_);}
	.st42{fill:url(#SVGID_00000090995311592126846790000005257324180402602652_);}
	.st43{fill:url(#SVGID_00000080192074409287641570000003856489607809772449_);}
	.st44{fill:url(#SVGID_00000162327362306183126720000002941417844667329419_);}
	.st45{fill:url(#SVGID_00000156572145942456075340000014879851156700024489_);}
	.st46{fill:url(#SVGID_00000157307820062130217540000011444234916379720873_);}
	.st47{fill:url(#SVGID_00000026130963376459890420000013717915497071763113_);}
	.st48{fill:url(#SVGID_00000165935039126179354830000015398752244898391183_);}
	.st49{fill:url(#SVGID_00000082329401069194308120000001863621577248632988_);}
	.st50{fill:url(#SVGID_00000152965054256506643200000001858738650942739374_);}
	.st51{fill:url(#SVGID_00000153694541886114958300000008027986760914815929_);}
	.st52{fill:url(#SVGID_00000090992695888386512930000006908531235906278813_);}
	.st53{fill:url(#SVGID_00000149365834515298238850000016129323409804723080_);}
	.st54{fill:url(#SVGID_00000033356266878934795690000018047126302236794764_);}
	.st55{fill:url(#SVGID_00000150782655499750807630000017417957649152569763_);}
	.st56{fill:url(#SVGID_00000129186075821026243100000015133566215749619897_);}
	.st57{fill:url(#SVGID_00000032614835441444894380000007091170831799964850_);}
	.st58{fill:url(#SVGID_00000098201938489229132180000011541175183789626502_);}
	.st59{fill:url(#SVGID_00000114071763306274877840000012159083268380834740_);}
	.st60{fill:url(#SVGID_00000089532505070629115800000003291716303796449169_);}
	.st61{fill:url(#SVGID_00000039847523278476634110000013548525153086135681_);}
	.st62{fill:url(#SVGID_00000179647256647928030520000002929460643579102086_);}
	.st63{fill:url(#SVGID_00000022526786401203173330000009397651829641778816_);}
	.st64{fill:url(#SVGID_00000080183791822058078170000007481614088918097854_);}
	.st65{fill:url(#SVGID_00000080179851011846897160000006669195932457480872_);}
	.st66{fill:url(#SVGID_00000104702409411705109140000015333292382087422884_);}
	.st67{fill:url(#SVGID_00000136402977602429805600000005414842045549691310_);}
	.st68{fill:url(#SVGID_00000060014694630153615560000014888741173465948089_);}
	.st69{fill:url(#SVGID_00000165226677225321172130000011438122556031847338_);}
	.st70{fill:url(#SVGID_00000007426441044465862620000016651784176313473951_);}
	.st71{fill:url(#SVGID_00000014619818173855479650000000551167508897545610_);}
	.st72{fill:url(#SVGID_00000080887181501129226690000012926323397733587374_);}
	.st73{fill:url(#SVGID_00000168830541455917314130000016958862612577881514_);}
	.st74{fill:url(#SVGID_00000023966292777417549930000016899165269776528775_);}
	.st75{fill:url(#SVGID_00000142176838944230529990000009129261171964506287_);}
	.st76{fill:url(#SVGID_00000039134611379142784340000007341092608508496559_);}
	.st77{fill:url(#SVGID_00000151532722936956418940000011166293714218572707_);}
	.st78{fill:url(#SVGID_00000129186068379183694900000000448793230967231931_);}
	.st79{fill:url(#SVGID_00000040561366555256275470000009554397923461006727_);}
	.st80{fill:url(#SVGID_00000147208005868276455890000009188345790555975552_);}
	.st81{fill:url(#SVGID_00000100368392204861429140000003968417735081883521_);}
	.st82{fill:url(#SVGID_00000104688035818063566220000000657316101437277067_);}
	.st83{fill:url(#SVGID_00000021809438253813398660000015327390342726466458_);}
	.st84{fill:url(#SVGID_00000062884378917126118330000000311351234670043566_);}
	.st85{fill:url(#SVGID_00000108273318094434217500000012755135956479336878_);}
	.st86{fill:url(#SVGID_00000085238305201700013890000006360382318624603041_);}
	.st87{fill:url(#SVGID_00000125595160645531327970000007279041171341743782_);}
	.st88{fill:url(#SVGID_00000025421814871216009190000005429484236315715763_);}
	.st89{fill:url(#SVGID_00000074410211840528379310000004645287692760387754_);}
	.st90{fill:url(#SVGID_00000047777001908415000510000003868391478360323767_);}
	.st91{fill:url(#SVGID_00000025423550090936622890000006141194199626385853_);}
	.st92{fill:url(#SVGID_00000056427662710317725330000015526947894837114778_);}
	.st93{fill:url(#SVGID_00000117647728299981443390000008922157639416065946_);}
	.st94{fill:url(#SVGID_00000132089253974196579360000002104462299250921625_);}
	.st95{fill:url(#SVGID_00000157998533272815270520000002400885975681700008_);}
	.st96{fill:url(#SVGID_00000137102629026309211180000008346266926722174385_);}
	.st97{fill:url(#SVGID_00000177460723562230754630000013817154624188392377_);}
	.st98{fill:url(#SVGID_00000031185057738972142630000001788134153544233367_);}
	.st99{fill:url(#SVGID_00000036967522654094600130000005970208354290496439_);}
	.st100{fill:url(#SVGID_00000052089528250139758830000013372740860794995366_);}
	.st101{fill:url(#SVGID_00000150089265843662614940000000865299881051209346_);}
	.st102{fill:#502F8E;}
	.st103{fill:url(#SVGID_00000024699569107530869200000016421465317352286365_);}
	.st104{fill:url(#SVGID_00000043433548175719944010000016882651152469027512_);}
	.st105{fill:url(#SVGID_00000083799573907750886320000007204380855183792312_);}
	.st106{fill:url(#SVGID_00000019678682122115154670000002089461411855760041_);}
	.st107{fill:url(#SVGID_00000018226988649243664290000007992429940284618139_);}
	.st108{fill:url(#SVGID_00000100358746069453970940000006755284004389071507_);}
	.st109{fill:url(#SVGID_00000181792621109090740650000008930998128829218948_);}
	.st110{fill:url(#SVGID_00000021811594066322103190000016513776853397082778_);}
	.st111{fill:url(#SVGID_00000002368421012645308350000009319941571516720537_);}
	.st112{fill:url(#SVGID_00000114758457742764543940000015388220471720681360_);}
	.st113{fill:url(#SVGID_00000044863443386113932620000011220132146135423105_);}
	.st114{fill:url(#SVGID_00000176733195745129359410000015115918068469310383_);}
	.st115{fill:url(#SVGID_00000106129184722127287930000015982084843702377857_);}
	.st116{fill:url(#SVGID_00000047753531010008487180000006510608164746200757_);}
	.st117{fill:url(#SVGID_00000082355445699975567420000013732973350235400865_);}
	.st118{fill:url(#SVGID_00000164488109399672038530000018266673360996058018_);}
	.st119{fill:url(#SVGID_00000052816195459792618710000001335044588656166323_);}
	.st120{fill:url(#SVGID_00000085222908140079158890000017495347334463291035_);}
	.st121{fill:url(#SVGID_00000003094385910051616420000005723347757108349859_);}
	.st122{fill:url(#SVGID_00000080166674447834367800000002757628276384783279_);}
	.st123{fill:url(#SVGID_00000132774603183267013480000007687795196524175535_);}
	.st124{fill:url(#SVGID_00000138563996803558437910000002610540932177853097_);}
	.st125{fill:url(#SVGID_00000051361607679542297570000003353632838930156190_);}
	.st126{fill:url(#SVGID_00000180353724754494411480000017830977569698092690_);}
	.st127{fill:url(#SVGID_00000121997318634199767590000016798133446923314334_);}
	.st128{fill:url(#SVGID_00000102515481481813843640000013952716258602880136_);}
	.st129{fill:url(#SVGID_00000162317656474541220170000005812544325488472489_);}
	.st130{fill:url(#SVGID_00000063626958361335265170000011253371488942038694_);}
	.st131{fill:url(#SVGID_00000003783195719854632040000009349664849844218794_);}
	.st132{fill:url(#SVGID_00000067936345859797181990000018386592041512494245_);}
	.st133{fill:url(#SVGID_00000183226503419038763800000014620350894006891916_);}
	.st134{fill:url(#SVGID_00000028288006152437517190000018286547520056347796_);}
	.st135{fill:url(#SVGID_00000034800898896046855140000005575120226301051837_);}
	.st136{fill:url(#SVGID_00000036971576252598868850000008173320639188899972_);}
	.st137{fill:url(#SVGID_00000168819241543565808660000006689237254142856085_);}
	.st138{fill:url(#SVGID_00000109719162310150735100000000955341923228655748_);}
	.st139{fill:url(#SVGID_00000024702378435474470560000009154308895884907171_);}
	.st140{fill:url(#SVGID_00000160167134123171661070000000012628938711069593_);}
	.st141{fill:url(#SVGID_00000079481259155223656860000009777957411438226618_);}
	.st142{fill:url(#SVGID_00000118365750165717813420000009043158926158924954_);}
	.st143{fill:url(#SVGID_00000129888726201773760480000003158157778392468363_);}
	.st144{fill:url(#SVGID_00000041998220183285676760000015007119141939475132_);}
	.st145{fill:url(#SVGID_00000081647690211214329950000014314546330696546211_);}
	.st146{fill:url(#SVGID_00000148621787781382835810000018334665938518380971_);}
	.st147{fill:url(#SVGID_00000167373599153250391500000011868138258379689092_);}
	.st148{fill:url(#SVGID_00000016052046506615077630000008948416376168849815_);}
	.st149{fill:url(#SVGID_00000097479710851211671260000005383191313540400285_);}
	.st150{fill:url(#SVGID_00000083804079242567337830000003504611671309188756_);}
	.st151{fill:url(#SVGID_00000034061257970885059610000001129688858307496626_);}
	.st152{fill:url(#SVGID_00000057838455755256180760000007917195639626907065_);}
	.st153{fill:url(#SVGID_00000015314749785396903200000003279863878018633887_);}
	.st154{fill:url(#SVGID_00000060732511483013614520000007031851101894164888_);}
	.st155{fill:url(#SVGID_00000015313935787965913920000004481517573504169620_);}
	.st156{fill:url(#SVGID_00000145743269943052383990000009735896423800822189_);}
	.st157{fill:url(#SVGID_00000027575561215856776280000005174317095965349020_);}
	.st158{fill:url(#SVGID_00000153665167111230549380000016854258863477828768_);}
	.st159{fill:url(#SVGID_00000036965063595022746120000009328422138832770205_);}
	.st160{fill:url(#SVGID_00000150068628667513966010000004067315998622286526_);}
	.st161{fill:url(#SVGID_00000079487372423263266180000002808792699210515616_);}
	.st162{fill:url(#SVGID_00000017485367163531415460000003563473848029241494_);}
	.st163{fill:url(#SVGID_00000019657620434205160920000016757655097019871906_);}
	.st164{fill:url(#SVGID_00000062901935209157517890000014056620137685045664_);}
	.st165{fill:url(#SVGID_00000138559264762773290980000000227959122878700721_);}
	.st166{fill:url(#SVGID_00000093140650628589792770000014303721318699433134_);}
	.st167{fill:url(#SVGID_00000039094715976919904920000017709461816662144925_);}
	.st168{fill:url(#SVGID_00000116931846507233627750000009994919734089172904_);}
	.st169{fill:url(#SVGID_00000091701902907897855420000016623541213792524209_);}
	.st170{fill:url(#SVGID_00000141436113587167072290000000017117392389600394_);}
</style></svg>
